<?xml version="1.0" standalone="no"?>
<!DOCTYPE svg PUBLIC "-//W3C//DTD SVG 20010904//EN"
 "http://www.w3.org/TR/2001/REC-SVG-20010904/DTD/svg10.dtd">
<svg version="1.0" xmlns="http://www.w3.org/2000/svg"
 width="620.000000pt" height="620.000000pt" viewBox="0 0 620.000000 620.000000"
 preserveAspectRatio="xMidYMid meet">
<metadata>
Created by potrace 1.14, written by Peter Selinger 2001-2017
</metadata>
<g transform="translate(0.000000,620.000000) scale(0.100000,-0.100000)"
fill="#000000" stroke="none">
<path d="M2069 6036 c-2 -3 -17 -7 -32 -10 -58 -10 -97 -28 -90 -39 4 -8 1 -7
-9 1 -13 10 -17 10 -22 -3 -3 -8 -9 -14 -14 -13 -19 6 -115 -109 -100 -119 2
-1 -6 -9 -17 -18 -11 -9 -13 -13 -5 -9 10 5 9 1 -4 -14 -10 -12 -16 -28 -12
-37 3 -9 0 -18 -8 -21 -8 -3 -17 -12 -20 -20 -4 -10 -1 -13 7 -9 6 4 5 1 -4
-7 -9 -7 -16 -15 -17 -18 -4 -28 -16 -60 -23 -60 -5 0 -6 -7 -3 -15 4 -8 1
-15 -6 -15 -6 0 -9 -4 -5 -9 3 -5 1 -12 -5 -16 -6 -4 -8 -11 -5 -16 4 -5 0
-12 -9 -15 -8 -3 -12 -12 -9 -20 3 -8 1 -14 -4 -14 -5 0 -10 -7 -11 -15 -1 -8
-3 -22 -4 -30 -1 -8 -5 -15 -10 -15 -5 0 -7 -4 -3 -9 3 -5 1 -12 -5 -16 -6 -4
-8 -10 -6 -14 6 -9 1 -10 -71 -12 -35 -2 -50 -6 -46 -13 4 -6 -1 -5 -10 3 -9
7 -17 9 -17 4 0 -11 -79 -11 -96 0 -6 3 -14 3 -18 0 -8 -8 -27 -12 -81 -17
-22 -2 -40 -5 -40 -6 0 -2 -73 -12 -97 -13 -9 -1 -14 -6 -11 -11 4 -5 -3 -7
-15 -4 -12 4 -22 2 -22 -4 0 -5 -4 -7 -9 -3 -5 3 -12 1 -16 -5 -3 -5 -15 -10
-26 -10 -10 0 -19 -5 -19 -11 0 -5 -5 -7 -10 -4 -6 3 -10 1 -10 -5 0 -6 -4 -9
-9 -5 -5 3 -16 -1 -24 -9 -8 -8 -17 -13 -20 -10 -2 3 -23 -13 -47 -36 -23 -22
-45 -38 -49 -36 -4 3 -13 -9 -20 -24 -7 -16 -16 -29 -19 -29 -20 3 -25 -2 -12
-11 13 -8 12 -10 -2 -10 -10 0 -18 -7 -18 -15 0 -8 -4 -15 -10 -15 -5 0 -10
-7 -10 -15 0 -8 -5 -15 -11 -15 -5 0 -7 -4 -4 -10 3 -5 3 -10 -2 -10 -11 0
-33 -49 -33 -72 0 -10 -4 -18 -9 -18 -9 0 -24 -67 -25 -107 0 -13 -4 -23 -8
-23 -5 0 -4 -10 3 -21 6 -12 7 -19 2 -16 -6 4 -8 -31 -6 -91 3 -53 5 -107 5
-119 0 -13 5 -23 10 -23 6 0 8 -9 5 -19 -3 -11 1 -22 9 -25 7 -3 11 -12 8 -20
-3 -8 6 -35 20 -60 14 -25 23 -46 19 -46 -4 0 2 -7 13 -16 10 -8 12 -13 4 -9
-8 4 -4 -3 9 -14 13 -12 19 -21 15 -21 -5 0 -1 -5 9 -11 9 -5 17 -17 17 -24 0
-8 6 -15 13 -15 7 0 20 -8 29 -17 28 -30 46 -42 52 -36 3 4 6 -1 6 -10 0 -10
7 -15 19 -12 11 2 22 -3 25 -11 3 -8 14 -14 23 -14 10 0 29 -7 41 -16 12 -8
27 -12 32 -9 6 3 17 -1 26 -10 13 -13 14 -21 6 -38 -33 -71 -42 -98 -36 -109
4 -7 3 -8 -4 -4 -7 4 -12 1 -12 -9 0 -8 -4 -23 -9 -33 -20 -38 -35 -78 -36
-92 -1 -8 -6 -14 -12 -13 -5 1 -10 -8 -9 -20 1 -12 -6 -33 -16 -46 -10 -13
-16 -27 -13 -31 4 -7 -25 -18 -48 -19 -4 -1 -22 -7 -41 -15 -19 -8 -37 -12
-40 -8 -3 3 -6 0 -6 -7 0 -7 -4 -10 -9 -6 -5 3 -13 0 -16 -6 -4 -5 -12 -8 -19
-6 -6 3 -20 -1 -30 -9 -11 -7 -23 -11 -27 -8 -5 3 -9 1 -9 -5 0 -5 -14 -12
-31 -16 -17 -4 -32 -12 -35 -19 -2 -6 -13 -12 -23 -13 -11 -1 -29 -10 -40 -20
-12 -10 -26 -18 -31 -18 -4 0 -20 -10 -34 -22 -14 -13 -26 -21 -26 -18 0 4
-27 -16 -54 -41 -6 -5 -19 -13 -29 -17 -10 -4 -15 -11 -12 -17 3 -5 -1 -10 -9
-10 -9 0 -16 -7 -16 -17 0 -9 -3 -14 -6 -10 -6 6 -50 -34 -47 -43 1 -3 -12
-15 -28 -25 -16 -11 -29 -29 -29 -39 0 -11 -3 -16 -7 -13 -7 8 -39 -34 -35
-45 1 -5 -5 -8 -13 -8 -8 0 -15 -7 -15 -15 0 -8 -10 -24 -22 -36 -13 -12 -16
-19 -8 -15 11 6 11 4 -1 -6 -9 -7 -19 -23 -23 -36 -4 -12 -12 -20 -17 -16 -5
3 -9 2 -8 -3 1 -4 0 -11 -1 -15 -1 -5 -3 -11 -4 -15 -1 -5 -7 -18 -14 -30 -7
-13 -9 -23 -5 -23 4 0 0 -7 -10 -14 -10 -8 -18 -17 -18 -20 1 -17 -12 -66 -18
-66 -13 0 -15 -52 -16 -429 0 -299 3 -385 13 -389 6 -2 12 -9 12 -16 0 -7 9
-31 20 -54 11 -22 20 -46 20 -52 0 -5 5 -10 11 -10 6 0 9 -7 5 -15 -3 -8 -1
-15 4 -15 5 0 12 -11 16 -25 3 -14 10 -25 15 -25 5 0 9 -7 9 -15 0 -8 5 -15
10 -15 6 0 10 -7 10 -15 0 -8 5 -15 11 -15 5 0 7 -5 4 -10 -3 -6 1 -13 9 -16
9 -3 13 -10 10 -15 -3 -5 2 -9 10 -9 9 0 16 -9 16 -21 0 -11 4 -17 10 -14 5 3
10 1 10 -5 0 -20 105 -132 114 -122 3 3 6 -2 6 -11 0 -15 11 -22 33 -18 4 0 7
-5 7 -12 0 -7 14 -21 30 -30 17 -10 30 -23 30 -28 0 -6 4 -8 8 -5 5 3 18 -4
30 -14 12 -11 26 -20 32 -20 5 0 10 -4 10 -8 0 -13 228 -120 274 -129 11 -2
25 -8 32 -14 7 -6 18 -8 24 -4 5 3 10 1 10 -4 0 -6 5 -11 11 -11 5 0 7 5 3 11
-4 7 3 6 17 -2 13 -7 38 -13 55 -15 17 -1 41 -7 54 -14 17 -9 21 -9 15 0 -6 9
-2 9 14 1 16 -9 21 -9 21 1 0 10 2 10 9 0 6 -9 28 -13 73 -11 36 1 70 -1 76
-5 7 -4 12 -3 12 2 0 5 11 7 25 4 14 -2 31 0 38 6 8 7 18 7 27 2 8 -5 21 -5
31 0 9 5 19 6 23 3 3 -3 6 -1 6 6 0 8 5 7 16 -3 8 -9 23 -16 32 -16 10 0 27
-7 38 -15 12 -8 24 -11 28 -8 3 3 6 1 6 -6 0 -7 5 -9 11 -6 5 4 18 0 28 -9 10
-9 30 -17 44 -18 15 -1 27 -5 27 -9 0 -7 73 -32 81 -27 3 2 14 -5 24 -15 9
-10 23 -16 30 -13 8 3 16 -2 19 -9 3 -8 12 -12 21 -9 8 4 15 1 15 -7 0 -7 3
-9 7 -6 3 4 12 2 20 -4 7 -6 13 -8 13 -5 0 4 7 1 15 -8 9 -8 22 -13 30 -10 8
4 15 1 15 -5 0 -6 7 -11 15 -11 8 0 40 -12 71 -26 31 -14 64 -27 74 -29 10 -2
26 -8 36 -13 44 -23 137 -57 147 -54 4 1 7 -1 7 -6 0 -6 21 -17 85 -41 11 -5
45 -18 75 -30 30 -12 60 -23 65 -24 6 -1 12 -4 15 -7 7 -7 73 -32 88 -33 6 0
12 -4 12 -9 0 -4 9 -8 20 -8 11 0 20 -4 20 -8 0 -8 6 -10 49 -14 11 -1 17 -6
15 -10 -5 -7 0 -9 21 -8 3 0 19 -7 35 -15 17 -9 36 -13 42 -9 6 4 8 3 4 -4 -8
-13 29 -26 45 -16 7 4 9 3 6 -3 -4 -7 12 -16 38 -24 25 -7 45 -17 45 -22 0 -4
4 -5 10 -2 5 3 10 2 10 -4 0 -6 7 -8 15 -5 8 4 15 1 15 -6 0 -8 8 -10 21 -7
12 3 22 0 26 -9 3 -8 11 -14 19 -14 13 0 86 -29 127 -51 10 -5 22 -7 27 -4 6
4 10 2 10 -4 0 -6 12 -14 28 -17 15 -4 36 -14 46 -23 11 -9 16 -11 13 -4 -5 8
1 7 20 -2 16 -7 35 -15 43 -17 8 -2 21 -9 28 -16 8 -7 19 -11 26 -9 6 2 17 -2
24 -10 8 -7 18 -11 23 -8 5 4 9 1 9 -5 0 -6 4 -9 9 -5 5 3 13 0 16 -6 4 -5 13
-8 20 -5 8 3 15 0 17 -5 2 -6 10 -11 18 -13 8 -1 25 -8 38 -14 12 -7 22 -10
22 -6 0 3 7 1 15 -6 8 -7 15 -9 15 -6 0 4 7 0 16 -8 8 -9 20 -14 25 -11 5 4 9
1 9 -5 0 -7 7 -10 15 -6 8 3 15 1 15 -5 0 -6 4 -8 9 -4 5 3 12 1 16 -5 4 -6
11 -8 16 -5 5 4 9 1 9 -4 0 -6 7 -11 15 -11 8 0 24 -4 35 -10 11 -6 29 -15 40
-20 11 -6 27 -10 35 -10 8 0 15 -5 15 -11 0 -5 4 -8 9 -4 5 3 12 1 16 -5 4 -6
11 -8 16 -5 5 4 9 1 9 -5 0 -7 7 -10 15 -6 8 3 15 1 15 -5 0 -6 5 -7 10 -4 5
3 10 1 10 -5 0 -7 7 -10 15 -6 8 3 15 1 15 -5 0 -6 4 -7 10 -4 6 3 10 1 10 -4
0 -6 9 -11 19 -11 11 0 23 -5 26 -10 4 -6 11 -8 16 -5 5 4 9 2 9 -4 0 -6 7 -8
15 -5 8 4 15 1 15 -6 0 -6 4 -9 8 -6 5 3 20 -1 34 -8 16 -8 31 -10 41 -5 10 6
18 5 22 -1 4 -7 13 -7 26 0 13 8 19 7 19 0 0 -6 5 -8 10 -5 6 4 8 11 5 16 -3
5 1 6 9 3 20 -7 107 26 100 38 -3 4 -2 8 3 7 22 -4 43 2 38 11 -3 6 1 10 9 10
9 0 16 6 16 14 0 8 9 18 20 21 11 4 18 10 15 15 -3 4 2 10 10 14 8 3 15 11 15
19 0 7 8 29 19 50 10 20 15 34 10 31 -5 -3 -6 2 -3 10 3 9 10 16 15 16 5 0 9
7 9 15 0 8 4 23 9 33 24 48 41 94 36 102 -3 4 2 11 11 14 9 4 14 9 11 13 -4 3
-2 12 4 19 6 8 9 21 5 29 -3 9 -2 13 4 10 9 -6 14 8 11 28 0 4 3 7 9 7 5 0 7
7 4 15 -4 8 -2 15 4 15 6 0 13 13 17 30 4 16 11 30 16 30 6 0 8 4 4 9 -3 5 -1
12 5 16 6 4 8 11 5 16 -4 5 -2 9 4 9 6 0 8 7 5 15 -4 8 -1 15 6 15 8 0 11 9 8
25 -3 13 -1 22 3 19 5 -3 9 2 9 11 0 9 5 13 10 10 6 -3 10 -2 10 4 0 5 -6 12
-12 14 -8 3 -6 6 4 6 11 1 16 8 13 21 -2 11 1 20 6 20 6 0 7 5 4 10 -3 5 -2
10 2 10 5 0 15 17 22 37 7 21 19 52 26 68 23 51 36 90 38 117 1 9 5 14 9 12 4
-3 8 0 8 6 0 6 4 9 9 5 5 -3 12 -1 16 5 4 7 12 7 26 0 10 -6 19 -7 19 -2 0 5
20 6 45 2 25 -4 48 -3 51 2 3 5 12 4 20 -3 11 -9 14 -9 14 1 0 8 3 10 7 7 3
-4 13 -2 20 5 11 9 17 9 24 -3 5 -8 9 -9 9 -3 0 7 6 12 13 11 49 -2 77 4 71
15 -4 7 -3 8 5 4 6 -4 19 -2 28 6 12 9 15 9 9 1 -8 -14 6 -18 18 -5 4 4 11 7
14 8 8 1 21 5 72 24 98 35 116 43 132 57 9 8 22 12 27 8 6 -3 11 -1 11 4 0 6
7 11 16 11 8 0 12 5 9 10 -3 5 2 10 13 10 10 0 28 9 40 20 12 12 22 18 22 15
0 -3 10 3 22 15 12 11 26 20 30 20 5 0 22 14 38 30 17 17 30 28 30 25 0 -3 11
5 24 17 13 13 23 25 22 28 0 3 2 6 7 8 14 4 47 42 47 54 0 6 3 9 6 5 7 -7 34
17 34 30 0 4 9 14 20 21 12 7 18 17 15 22 -3 5 5 16 17 24 12 9 19 18 16 22
-4 3 7 20 23 36 16 17 29 40 29 50 0 12 4 17 12 12 8 -5 9 -2 5 9 -4 11 -1 17
9 17 8 0 13 4 9 9 -3 5 2 16 10 24 11 12 12 17 2 20 -9 4 -9 6 1 6 6 1 12 10
12 22 0 12 4 17 11 14 6 -4 9 -1 8 6 -1 8 3 27 9 42 7 16 12 35 12 43 0 8 4
14 10 14 13 0 12 757 -1 765 -5 4 -7 11 -4 16 4 5 2 9 -3 9 -6 0 -13 7 -16 16
-3 8 -2 12 4 9 6 -3 7 1 4 9 -3 9 -10 16 -16 16 -5 0 -7 4 -3 9 3 5 0 13 -6
16 -5 4 -8 14 -5 22 3 8 1 11 -4 8 -6 -3 -10 3 -10 14 0 11 -7 26 -15 34 -8 8
-11 17 -8 21 3 3 -2 8 -11 12 -9 3 -13 10 -10 15 3 5 0 9 -5 9 -6 0 -11 9 -11
21 0 11 -4 17 -10 14 -6 -3 -10 0 -10 8 0 8 -7 20 -15 27 -8 7 -13 16 -10 20
3 4 -2 11 -11 14 -9 4 -14 9 -11 12 3 3 -8 18 -24 33 -16 16 -29 33 -29 39 0
6 -8 13 -17 16 -10 3 -27 19 -38 36 -11 16 -25 30 -32 30 -6 0 -15 5 -19 12
-5 7 -2 9 7 4 8 -4 3 2 -11 13 -15 12 -19 21 -11 21 11 0 11 3 0 17 -8 9 -9
14 -2 10 11 -7 30 28 25 46 -1 4 3 7 8 7 5 0 9 3 8 8 -1 4 3 17 10 30 7 12 10
26 8 31 -3 5 0 11 8 14 12 5 31 60 27 80 0 4 4 7 9 7 5 0 9 3 8 8 -1 8 6 30
33 89 10 24 19 47 19 52 0 5 6 12 13 14 9 4 8 6 -2 6 -11 1 -11 5 3 20 9 10
16 25 14 32 -2 8 2 13 9 12 7 -2 10 6 8 17 -2 11 1 20 6 20 6 0 8 4 5 9 -3 4
1 16 8 27 8 10 12 24 9 31 -3 7 0 13 5 13 6 0 14 17 18 38 4 20 9 41 12 46 8
14 11 77 3 72 -3 -2 -7 16 -8 41 -1 25 -5 49 -10 52 -4 3 -9 13 -11 21 -2 8
-8 17 -13 18 -5 2 -7 8 -3 13 3 5 0 9 -6 9 -6 0 -8 5 -5 10 3 6 1 10 -4 10 -6
0 -11 5 -11 12 0 13 -58 67 -74 69 -6 1 -15 1 -19 0 -5 -1 -6 3 -3 8 7 11 -22
23 -36 14 -7 -3 -8 -1 -4 5 5 8 0 12 -13 12 -11 0 -23 5 -26 10 -3 6 -15 10
-26 10 -10 0 -19 4 -19 8 0 5 -6 9 -12 9 -23 1 -43 8 -50 17 -3 5 -13 11 -22
12 -8 1 -29 9 -47 18 -17 9 -35 13 -40 10 -5 -3 -9 0 -9 6 0 6 -4 8 -10 5 -5
-3 -10 -1 -10 5 0 6 -6 10 -12 9 -26 -3 -39 1 -33 12 4 6 1 9 -6 8 -8 -2 -24
2 -36 9 -13 7 -23 10 -23 7 0 -3 -10 0 -22 7 -13 7 -29 11 -35 10 -7 -2 -13 2
-13 8 0 6 -4 8 -10 5 -5 -3 -10 -2 -10 2 0 5 -24 17 -52 27 -29 10 -73 27 -98
38 -24 11 -49 21 -55 22 -5 1 -17 6 -25 11 -8 5 -23 11 -33 12 -10 2 -28 10
-41 18 -12 8 -26 12 -29 8 -4 -3 -7 -1 -7 5 0 7 -9 12 -19 12 -11 0 -23 5 -26
10 -3 6 -17 10 -31 10 -13 0 -24 6 -24 13 0 8 -4 7 -10 -3 -8 -13 -10 -13 -10
1 0 9 -7 16 -15 17 -8 1 -22 3 -30 4 -8 1 -15 5 -15 10 0 5 -4 6 -10 3 -5 -3
-10 -1 -10 5 0 6 -4 8 -10 5 -5 -3 -10 -1 -10 5 0 7 -6 10 -14 7 -8 -3 -16 -1
-18 4 -2 5 -13 11 -26 12 -12 0 -22 4 -22 8 0 6 -74 31 -86 29 -4 -1 -10 4
-14 10 -4 7 -19 13 -33 13 -14 1 -23 5 -20 10 4 6 -20 11 -39 8 -5 0 -8 3 -8
9 0 5 -7 10 -15 10 -8 0 -31 9 -50 20 -20 11 -40 18 -46 15 -5 -4 -9 -1 -9 5
0 6 -4 8 -10 5 -5 -3 -10 -1 -10 4 0 6 -9 11 -21 11 -11 0 -27 7 -36 15 -8 8
-18 13 -23 10 -5 -3 -25 4 -45 15 -19 11 -44 20 -55 20 -11 0 -20 5 -20 10 0
6 -6 10 -13 10 -8 0 -29 8 -48 17 -19 10 -40 18 -47 19 -8 2 -30 10 -49 19
-20 10 -41 18 -48 19 -7 1 -20 8 -29 15 -8 7 -21 11 -28 9 -7 -3 -19 1 -26 9
-8 7 -18 11 -23 8 -5 -4 -9 -1 -9 6 0 7 -3 10 -6 7 -3 -4 -17 0 -31 7 -15 8
-30 12 -35 9 -4 -3 -8 -1 -8 4 0 5 -14 12 -31 16 -17 3 -28 10 -24 15 3 6 -4
8 -15 6 -11 -2 -20 1 -20 7 0 5 -7 8 -15 4 -8 -3 -15 0 -15 6 0 6 -2 9 -6 6
-3 -3 -26 5 -51 18 -26 13 -50 21 -55 18 -4 -3 -8 0 -8 5 0 6 -9 11 -20 11
-11 0 -20 5 -20 11 0 5 -4 8 -8 5 -4 -2 -21 2 -37 9 -69 32 -108 44 -118 38
-6 -3 -7 -1 -3 5 6 11 -6 16 -26 13 -5 0 -8 4 -8 9 0 6 -9 10 -19 10 -11 0
-23 5 -26 11 -4 6 -13 8 -21 5 -8 -3 -14 -1 -14 5 0 6 -4 7 -10 4 -5 -3 -10
-1 -10 5 0 6 -4 9 -9 6 -5 -3 -14 1 -21 9 -7 8 -18 15 -24 15 -6 0 -4 -5 4
-10 8 -5 10 -10 4 -10 -6 0 -17 7 -24 15 -7 8 -16 13 -20 10 -5 -3 -10 -1 -12
5 -1 5 -15 11 -30 12 -15 1 -24 6 -22 10 4 7 -10 10 -32 7 -4 0 -10 4 -13 9
-3 6 -15 12 -26 14 -11 1 -22 6 -25 10 -3 3 -14 8 -25 10 -11 1 -22 5 -25 8
-3 3 -16 11 -29 18 -19 11 -22 11 -15 0 4 -7 -2 -4 -14 6 -12 11 -22 16 -22
13 0 -3 -12 0 -27 8 -15 8 -31 11 -36 8 -6 -3 -7 -1 -4 4 8 13 -17 25 -37 17
-7 -3 -16 2 -19 10 -3 8 -14 13 -24 12 -10 -2 -24 3 -32 11 -7 8 -20 12 -27 9
-8 -3 -14 0 -14 6 0 6 -3 8 -7 5 -3 -4 -12 1 -20 11 -8 9 -12 12 -9 5 7 -14
-50 13 -59 28 -4 5 -10 7 -14 4 -5 -2 -27 5 -50 16 -23 11 -46 17 -50 14 -5
-3 -11 0 -13 5 -2 6 -11 12 -20 13 -9 2 -23 8 -31 15 -8 7 -28 14 -45 15 -16
1 -28 5 -25 10 4 6 -21 10 -32 5 -2 -2 -11 6 -20 17 -9 11 -13 13 -9 5 5 -11
2 -10 -13 3 -11 10 -34 19 -51 20 -18 1 -34 9 -37 17 -5 13 -7 13 -15 0 -6
-10 -10 -11 -10 -3 0 9 -7 10 -26 3 -16 -7 -23 -7 -19 0 6 10 2 14 -6 6z m46
-83 c30 -3 49 -8 62 -16 6 -4 23 -8 36 -9 14 -1 23 -6 21 -10 -3 -4 -2 -8 3
-9 27 -2 47 -9 69 -23 18 -12 24 -13 24 -4 0 8 5 5 11 -5 6 -9 14 -15 20 -12
5 4 9 2 9 -2 0 -5 10 -10 22 -10 13 -1 24 -7 26 -13 2 -5 15 -10 28 -10 13 0
24 -5 24 -12 0 -6 3 -9 6 -5 4 3 23 -2 44 -13 21 -11 40 -16 44 -13 3 4 6 1 6
-5 0 -7 8 -12 18 -12 10 0 23 -5 30 -12 7 -7 12 -8 12 -4 0 5 7 2 16 -5 9 -7
25 -14 35 -16 11 -2 32 -11 46 -20 15 -10 24 -13 20 -6 -4 6 12 1 35 -11 24
-12 56 -26 71 -30 15 -3 25 -11 22 -15 -3 -5 4 -7 15 -4 12 3 20 0 20 -6 0 -7
5 -9 10 -6 6 3 10 1 10 -5 0 -6 4 -8 10 -5 5 3 21 -1 34 -10 14 -9 26 -16 28
-16 13 2 48 -13 48 -21 0 -5 5 -6 10 -3 6 4 17 1 25 -5 8 -7 15 -9 15 -6 0 4
7 1 15 -8 8 -8 24 -13 35 -11 11 2 18 0 15 -6 -5 -8 15 -14 38 -10 4 0 7 -4 7
-10 0 -5 5 -7 10 -4 6 3 10 1 10 -6 0 -7 3 -10 6 -6 4 3 19 0 35 -9 16 -8 29
-11 29 -7 0 5 4 2 8 -5 5 -7 18 -14 31 -17 12 -2 36 -11 53 -20 17 -8 37 -15
45 -15 7 0 13 -4 13 -10 0 -5 11 -10 25 -10 14 0 25 -5 25 -12 0 -6 3 -8 7 -5
3 4 12 2 19 -4 8 -6 21 -9 29 -5 9 3 13 2 10 -4 -3 -6 1 -10 9 -10 9 0 16 -6
17 -12 0 -9 2 -9 6 1 4 10 7 11 13 1 5 -7 16 -14 27 -16 38 -5 63 -17 56 -27
-4 -6 0 -8 10 -4 9 3 19 2 23 -4 3 -6 13 -8 22 -4 9 3 13 3 9 -1 -7 -7 95 -53
126 -57 9 0 17 -4 17 -8 0 -4 12 -10 28 -15 43 -12 62 -19 116 -45 22 -10 43
-16 48 -13 4 3 8 1 8 -4 0 -5 19 -15 43 -22 23 -8 45 -18 48 -22 3 -4 17 -9
32 -10 15 -1 27 -6 27 -10 0 -4 6 -8 13 -8 20 0 89 -35 82 -42 -3 -3 6 -3 21
0 21 4 25 2 19 -8 -6 -10 -4 -12 8 -7 10 4 17 2 17 -4 0 -6 7 -9 15 -5 8 3 15
2 15 -2 0 -10 59 -32 84 -32 9 0 14 -4 11 -10 -5 -8 29 -15 38 -7 2 1 12 -6
22 -16 9 -10 24 -16 31 -13 8 3 14 2 14 -2 0 -4 11 -12 25 -19 19 -8 23 -8 18
0 -3 7 3 4 14 -6 11 -9 23 -14 26 -10 4 3 7 0 7 -7 0 -7 3 -11 6 -7 4 3 19 0
34 -8 15 -8 30 -11 34 -8 3 4 6 1 6 -6 0 -7 5 -9 10 -6 6 3 10 1 10 -6 0 -7 3
-9 7 -6 3 4 12 2 20 -4 7 -6 13 -8 13 -3 0 5 4 3 9 -4 4 -7 14 -15 22 -16 8
-2 25 -8 39 -13 14 -6 28 -9 33 -6 4 2 7 -1 7 -7 0 -6 4 -9 9 -5 5 3 13 1 16
-5 4 -6 16 -8 28 -5 17 5 19 4 7 -4 -13 -9 -12 -11 5 -12 11 -1 26 -2 32 -2 7
1 10 -3 7 -8 -3 -5 0 -10 5 -10 6 -1 14 -3 19 -4 4 -2 17 -6 30 -10 12 -4 22
-11 22 -15 0 -5 11 -7 24 -6 15 2 27 -3 31 -11 3 -9 12 -12 20 -9 8 3 15 1 15
-5 0 -6 5 -7 10 -4 6 3 10 1 10 -5 0 -7 6 -10 14 -7 8 3 16 1 18 -5 2 -6 13
-12 24 -13 10 -1 29 -7 42 -14 12 -6 28 -9 34 -5 6 4 8 3 5 -3 -6 -10 37 -29
56 -25 4 1 7 -3 7 -8 0 -5 3 -9 8 -8 4 1 20 -4 35 -10 16 -7 33 -12 38 -12 5
0 9 -4 9 -9 0 -5 11 -8 25 -7 14 2 22 -1 18 -7 -4 -6 2 -8 16 -4 13 3 20 3 17
0 -9 -10 27 -32 52 -33 12 0 22 -5 22 -11 0 -5 5 -7 10 -4 6 3 10 1 10 -4 0
-6 3 -10 8 -10 17 3 72 -14 72 -23 0 -5 5 -6 10 -3 6 3 10 2 10 -4 0 -6 7 -8
15 -5 8 4 15 1 15 -6 0 -7 7 -10 15 -6 8 3 15 1 15 -5 0 -6 5 -7 10 -4 6 3 10
-1 10 -10 0 -12 5 -15 16 -11 11 4 18 -1 21 -14 3 -11 9 -17 14 -14 5 3 9 -4
9 -16 0 -12 5 -18 10 -15 6 3 11 1 11 -4 1 -6 2 -17 3 -23 1 -7 8 -12 15 -10
8 2 11 -3 8 -13 -4 -8 -1 -15 5 -15 7 0 6 -5 -2 -15 -7 -9 -8 -15 -2 -15 5 0
12 -18 14 -40 2 -22 0 -40 -5 -40 -5 0 -7 -9 -4 -20 3 -11 1 -23 -5 -26 -5 -3
-7 -12 -4 -20 3 -8 1 -14 -4 -14 -5 0 -14 -18 -20 -40 -6 -22 -16 -40 -23 -40
-7 0 -6 -4 3 -10 8 -5 10 -10 4 -10 -7 0 -14 -9 -17 -20 -7 -26 -8 -30 -23
-59 -7 -14 -11 -28 -8 -33 3 -4 0 -8 -6 -8 -6 0 -8 -4 -5 -10 3 -5 1 -10 -5
-10 -6 0 -9 -4 -5 -9 3 -5 -1 -15 -8 -23 -19 -19 -30 -51 -14 -43 6 4 4 0 -5
-8 -10 -8 -15 -17 -11 -20 3 -4 0 -7 -8 -7 -11 0 -11 -2 1 -10 11 -7 11 -10 2
-10 -7 0 -10 -4 -7 -10 3 -5 1 -10 -5 -10 -6 0 -8 -4 -5 -10 3 -5 2 -10 -2
-10 -16 0 -32 -57 -19 -70 8 -8 6 -9 -8 -4 -13 5 -17 4 -12 -4 3 -6 2 -14 -4
-17 -8 -5 -7 -12 2 -23 8 -10 9 -13 1 -9 -7 4 -14 -1 -18 -12 -8 -26 -31 -33
-56 -18 -21 13 -22 46 -1 84 7 13 10 23 6 23 -3 0 -1 7 6 15 7 8 9 15 6 15 -4
0 0 7 9 16 12 12 13 19 5 24 -8 5 -7 9 4 13 9 4 16 15 16 24 0 10 7 28 15 39
8 12 11 24 8 28 -3 3 -1 6 6 6 8 0 11 7 7 15 -3 8 -1 15 3 15 5 0 12 7 15 16
4 10 2 13 -7 8 -6 -4 -4 2 5 12 10 11 21 35 24 52 4 18 11 29 17 25 6 -4 8 0
4 10 -3 9 0 23 8 31 8 7 11 16 8 20 -3 3 -1 12 5 19 7 8 9 17 5 20 -3 4 -1 7
6 7 7 0 9 5 6 10 -3 6 -1 10 4 10 6 0 11 11 11 25 0 14 5 25 11 25 7 0 9 10 7
25 -3 14 -2 25 2 25 4 0 7 7 7 15 0 8 -5 15 -11 15 -6 0 -4 5 4 10 12 8 12 10
1 10 -8 0 -11 3 -8 7 4 3 0 17 -8 30 -9 13 -13 23 -10 23 4 0 -1 7 -9 16 -9 8
-14 20 -11 24 3 5 -4 7 -16 5 -12 -2 -19 -2 -16 2 9 8 -24 32 -43 33 -8 0 -41
13 -72 29 -32 15 -58 23 -58 17 0 -7 -3 -7 -8 -1 -10 15 -49 35 -67 35 -8 0
-15 4 -15 8 0 5 -7 9 -15 10 -8 1 -22 3 -30 4 -8 1 -15 5 -15 10 0 4 -7 8 -15
8 -8 0 -15 4 -15 9 0 4 -11 7 -24 6 -14 -2 -27 3 -30 11 -3 8 -15 14 -26 14
-11 0 -20 5 -20 11 0 5 -5 7 -11 4 -5 -4 -18 0 -28 9 -9 8 -31 16 -49 18 -18
1 -32 6 -32 11 0 5 -7 6 -16 3 -8 -3 -12 -2 -9 4 6 9 -8 14 -27 11 -5 0 -8 4
-8 10 0 6 -6 9 -12 6 -7 -2 -32 6 -55 19 -22 12 -44 20 -47 17 -3 -4 -6 -2 -6
4 0 5 -6 10 -14 10 -8 0 -31 8 -52 18 -22 11 -48 20 -59 22 -10 2 -23 9 -27
16 -4 6 -8 9 -8 4 0 -4 -13 -1 -29 7 -16 9 -31 12 -35 9 -3 -4 -6 -1 -6 5 0 6
-16 14 -35 18 -19 3 -32 10 -29 15 3 5 -6 9 -20 9 -14 0 -28 5 -31 10 -3 6
-15 10 -26 10 -10 0 -19 5 -19 10 0 6 -5 10 -11 10 -5 0 -7 -6 -3 -12 4 -7 -5
-2 -21 12 -16 14 -25 20 -21 13 4 -7 -17 0 -47 15 -29 15 -59 28 -67 30 -7 2
-28 9 -47 17 -18 8 -37 15 -41 15 -4 1 -12 6 -19 12 -7 5 -16 7 -21 4 -6 -3
-15 1 -22 9 -7 8 -16 13 -20 10 -5 -3 -11 -1 -15 5 -4 6 -11 8 -16 5 -5 -4 -9
-1 -9 5 0 6 -4 8 -10 5 -5 -3 -10 -1 -10 5 0 6 -4 8 -10 5 -5 -3 -10 -2 -10 4
0 6 -7 8 -15 5 -8 -4 -15 -1 -15 6 0 7 -7 10 -15 6 -8 -3 -15 -1 -15 5 0 6 -4
7 -10 4 -5 -3 -10 -1 -10 4 0 6 -6 11 -14 11 -7 0 -26 7 -42 14 -15 8 -31 13
-36 10 -4 -3 -8 0 -8 6 0 6 -4 9 -9 5 -5 -3 -12 -1 -16 5 -4 6 -11 8 -16 5 -5
-4 -9 -1 -9 4 0 6 -12 11 -26 11 -17 0 -23 4 -18 12 5 8 2 9 -9 5 -10 -4 -17
-2 -17 4 0 6 -7 9 -15 5 -8 -3 -15 -1 -15 4 0 6 -4 10 -9 10 -5 0 -26 8 -47
17 -22 9 -43 18 -49 19 -33 7 -41 10 -46 17 -3 5 -12 10 -20 11 -8 2 -27 9
-44 15 -47 20 -69 28 -80 31 -5 1 -27 11 -48 21 -21 11 -42 17 -47 14 -6 -3
-10 -2 -10 3 0 10 -80 39 -94 34 -5 -2 -6 4 -3 12 4 10 1 13 -9 9 -7 -3 -14 0
-14 7 0 6 -5 8 -10 5 -6 -4 -16 -2 -23 3 -7 5 -20 8 -30 7 -9 -2 -15 1 -11 6
3 5 0 9 -5 9 -6 0 -13 0 -16 0 -3 0 -21 9 -41 20 -19 11 -33 17 -30 12 3 -5
-20 4 -52 19 -31 16 -65 29 -74 29 -10 0 -18 5 -18 10 0 6 -9 10 -19 10 -11 0
-23 5 -27 11 -3 6 -15 8 -26 6 -11 -3 -21 0 -25 9 -3 8 -9 12 -13 9 -5 -3 -11
-1 -15 5 -4 6 -11 8 -16 5 -5 -4 -9 -1 -9 5 0 6 -4 9 -9 5 -5 -3 -12 -1 -16 5
-4 6 -11 8 -16 5 -5 -4 -9 -1 -9 4 0 6 -9 11 -20 11 -11 0 -20 5 -20 10 0 6
-12 10 -26 10 -16 0 -23 4 -18 12 4 6 3 8 -4 5 -5 -4 -31 2 -56 13 -25 10 -46
16 -46 13 0 -4 -7 2 -15 13 -10 14 -14 15 -15 5 0 -11 -4 -9 -15 5 -11 15 -15
16 -15 4 -1 -10 -4 -9 -10 5 -5 12 -9 14 -9 6 -1 -12 -4 -11 -13 2 -7 9 -25
18 -40 19 -15 1 -24 6 -22 10 3 4 2 8 -3 9 -28 2 -58 11 -68 19 -7 5 -15 7
-18 3 -4 -3 -7 -1 -7 6 0 7 -4 9 -10 6 -5 -3 -10 -1 -10 5 0 6 -6 10 -12 8 -7
-1 -23 3 -35 10 -13 7 -23 9 -23 5 0 -4 -4 -2 -9 5 -4 7 -14 14 -22 15 -8 2
-20 7 -28 11 -10 7 -12 6 -6 -4 4 -7 -5 -3 -22 9 -16 12 -39 23 -51 24 -12 1
-22 5 -22 10 0 5 -7 7 -15 3 -8 -3 -15 -1 -15 4 0 8 -23 19 -42 20 -4 1 -23 7
-42 15 -18 8 -36 11 -40 8 -3 -4 -6 -1 -6 7 0 10 -4 10 -17 -1 -15 -12 -16
-12 -8 1 7 12 4 12 -17 -2 -19 -12 -28 -14 -37 -5 -8 8 -11 8 -11 0 0 -7 -12
-18 -27 -26 -16 -7 -27 -19 -25 -26 1 -7 -1 -10 -6 -7 -16 10 -42 -33 -45 -76
-1 -9 -5 -14 -9 -12 -4 3 -8 -6 -8 -20 0 -14 -5 -26 -11 -26 -5 0 -7 -4 -4
-10 3 -5 1 -10 -6 -10 -7 0 -10 -3 -6 -6 3 -4 0 -19 -9 -35 -8 -16 -12 -29 -8
-29 4 0 1 -7 -6 -15 -6 -8 -8 -20 -4 -26 4 -7 3 -9 -3 -6 -12 8 -26 -20 -17
-34 3 -5 1 -9 -4 -9 -6 0 -16 -19 -24 -42 -11 -35 -18 -43 -45 -49 -17 -3 -35
-3 -40 0 -13 10 -8 46 6 43 7 -1 10 2 6 8 -4 6 -1 17 5 25 6 8 9 19 5 25 -3 5
-1 10 4 10 6 0 11 9 11 19 0 11 7 27 16 35 12 12 12 16 2 16 -8 0 -9 3 -3 8
18 13 37 60 30 73 -6 8 -4 10 5 4 10 -6 12 -4 7 8 -3 10 -2 17 3 17 9 0 26 39
22 53 -1 4 3 7 8 7 5 0 9 3 9 8 -3 13 25 72 34 72 4 0 6 4 3 9 -3 4 9 19 26
32 17 13 37 30 44 36 7 7 23 14 36 15 13 2 25 6 28 10 3 4 17 8 32 10 15 2 30
7 34 11 4 4 10 4 13 0 3 -5 15 -9 26 -10z m-725 -934 c0 -8 5 -7 16 2 13 10
17 10 24 -1 5 -8 6 -18 4 -22 -3 -4 1 -8 8 -8 9 0 10 -3 2 -8 -17 -11 -46 -71
-39 -82 3 -6 1 -10 -4 -10 -6 0 -11 -9 -11 -19 0 -11 -4 -21 -10 -23 -5 -1
-11 -15 -12 -30 -1 -16 -6 -28 -9 -28 -4 0 -10 -13 -14 -30 -4 -16 -11 -30
-16 -30 -5 0 -8 -3 -8 -7 1 -5 0 -11 -1 -15 -1 -5 -4 -11 -5 -15 -1 -5 -8 -24
-16 -43 -7 -19 -12 -39 -11 -44 2 -5 -1 -12 -5 -15 -14 -11 -34 -52 -29 -60 3
-4 -5 -13 -18 -19 -17 -8 -30 -7 -49 3 -18 9 -28 10 -36 2 -7 -7 -12 -5 -17 6
-3 9 -9 15 -13 13 -17 -11 -71 60 -71 92 0 12 -4 23 -10 27 -6 3 -6 15 0 30 6
15 6 27 -1 30 -10 7 -7 63 5 83 4 7 2 12 -5 12 -9 0 -9 4 1 15 6 8 9 18 6 24
-3 5 1 12 10 15 8 3 12 10 9 16 -3 5 -3 10 2 10 4 0 14 14 22 31 7 16 15 28
18 26 2 -3 14 4 26 15 27 24 100 52 90 34 -4 -7 -2 -7 7 1 7 6 19 9 26 6 8 -3
14 -1 14 4 0 6 17 9 38 7 20 -1 44 2 52 7 21 12 30 11 30 -2z m215 2 c5 -1 4
-6 -2 -12 -6 -6 -9 -18 -6 -25 3 -8 0 -14 -7 -14 -7 0 -9 -8 -5 -21 5 -15 4
-19 -4 -15 -10 6 -16 -13 -12 -36 0 -5 -3 -8 -8 -8 -7 0 -17 -23 -26 -60 0 -3
-7 -16 -14 -28 -7 -13 -10 -26 -7 -29 3 -3 -2 -12 -12 -20 -11 -10 -12 -12 -2
-8 12 5 12 4 -1 -7 -9 -7 -15 -21 -13 -30 1 -9 -4 -19 -11 -22 -9 -3 -12 -15
-9 -31 3 -16 1 -24 -5 -21 -9 6 -19 -13 -22 -39 0 -5 -6 -19 -12 -30 -6 -11
-12 -26 -13 -32 -2 -11 -25 -39 -37 -46 -2 -1 -12 5 -22 13 -11 9 -16 10 -11
3 4 -7 3 -13 -3 -13 -22 0 -21 23 3 76 14 31 23 60 20 65 -3 5 0 9 6 9 7 0 10
6 8 12 -3 7 1 19 9 26 7 8 11 18 8 23 -4 5 -1 9 5 9 7 0 10 7 6 15 -3 8 -1 15
5 15 6 0 7 5 4 10 -3 6 -1 10 5 10 6 0 8 5 5 10 -3 6 -1 10 5 10 6 0 8 5 5 10
-3 6 -2 10 3 10 9 0 25 54 19 64 -1 2 6 13 16 23 9 11 14 23 10 26 -3 4 -2 7
4 7 5 0 10 6 11 13 2 28 9 48 20 59 7 7 12 17 12 23 0 10 16 11 75 6z m-696
-1718 c-5 -12 -5 -23 -2 -23 4 0 -3 -7 -15 -16 -19 -13 -21 -18 -10 -32 11
-13 11 -14 -1 -7 -11 6 -13 4 -8 -7 3 -9 0 -21 -6 -27 -10 -10 -17 -30 -19
-58 -1 -7 -6 -9 -11 -6 -6 4 -8 -1 -4 -11 4 -10 3 -15 -3 -11 -6 3 -11 -1 -11
-9 -2 -17 -5 -33 -9 -41 -1 -3 -3 -8 -4 -12 -1 -5 -14 -32 -28 -60 -16 -32
-22 -53 -15 -53 7 -1 6 -5 -3 -13 -8 -7 -16 -18 -18 -26 -3 -12 -10 -31 -37
-91 -2 -3 -6 -15 -10 -27 -4 -13 -12 -20 -19 -16 -6 4 -6 1 2 -9 10 -12 10
-18 -2 -27 -8 -7 -18 -27 -22 -44 -7 -35 -24 -68 -39 -79 -6 -5 -4 -8 4 -8 11
0 11 -4 -3 -19 -9 -10 -19 -28 -21 -41 -2 -12 -9 -28 -16 -36 -6 -8 -8 -14 -4
-14 4 0 1 -7 -6 -16 -7 -9 -15 -25 -16 -37 -2 -12 -9 -30 -17 -42 -13 -21 -30
-75 -28 -87 1 -5 -3 -8 -10 -8 -6 0 -9 -3 -5 -6 3 -4 -1 -13 -9 -22 -13 -12
-13 -16 -2 -23 9 -6 10 -9 1 -9 -7 0 -15 -11 -19 -25 -3 -14 -10 -25 -16 -25
-5 0 -6 -6 -2 -12 5 -9 4 -10 -4 -3 -6 6 -12 17 -14 25 -2 8 -8 20 -15 27 -7
8 -8 25 -3 48 4 19 5 35 1 35 -3 0 2 5 11 11 10 5 15 16 12 24 -4 8 -1 15 6
15 7 0 10 7 6 15 -3 8 -1 15 5 15 6 0 9 7 5 15 -3 8 -2 15 3 15 9 0 26 48 23
63 -1 4 3 7 8 7 6 0 10 8 10 18 0 10 7 28 16 40 8 12 13 26 10 31 -4 5 -1 11
4 13 6 2 13 12 15 23 2 11 4 21 5 23 3 2 4 7 15 40 4 12 11 22 14 22 4 0 8 6
9 13 2 31 13 61 24 69 7 4 9 8 4 8 -5 0 -3 6 3 13 6 8 8 17 4 20 -3 4 -1 7 6
7 7 0 9 5 6 10 -3 6 0 10 7 10 9 0 9 3 -2 10 -13 8 -12 10 3 10 10 0 15 5 12
10 -3 6 0 10 7 10 10 0 10 2 0 8 -9 6 -8 13 6 28 11 11 18 27 16 37 -1 9 2 17
8 17 6 0 7 7 4 16 -3 8 -2 12 4 9 6 -3 10 2 10 12 0 11 6 25 13 32 10 11 9 13
-3 7 -8 -4 -6 0 4 8 11 9 17 16 13 16 -3 0 5 24 18 54 13 30 21 57 18 60 -4 3
-2 6 4 6 6 0 14 16 17 35 4 19 11 35 17 35 6 0 7 5 4 10 -3 6 -1 10 6 10 7 0
9 3 6 7 -9 8 43 34 54 27 5 -3 9 -1 9 4 0 5 6 9 14 9 11 0 12 -6 5 -24z m-204
-105 c-3 -13 -8 -31 -9 -42 -1 -10 -11 -25 -21 -32 -14 -11 -15 -14 -4 -15 10
0 10 -2 1 -6 -6 -2 -10 -9 -6 -14 3 -5 0 -9 -6 -9 -7 0 -10 -7 -6 -15 3 -8 0
-15 -6 -15 -6 0 -8 -3 -5 -7 4 -3 0 -14 -8 -23 -8 -9 -16 -25 -18 -36 -6 -29
-19 -58 -31 -66 -7 -5 -6 -8 3 -8 11 0 10 -4 -4 -13 -10 -8 -15 -19 -11 -25 4
-7 2 -12 -4 -12 -6 0 -9 -4 -5 -9 3 -5 1 -12 -5 -16 -5 -3 -10 -15 -10 -25 0
-10 -6 -25 -12 -32 -7 -7 -15 -22 -16 -33 -2 -11 -7 -22 -10 -25 -4 -3 -9 -14
-10 -25 -2 -11 -9 -23 -15 -27 -6 -4 -8 -10 -5 -14 4 -3 -2 -22 -12 -42 -11
-19 -17 -39 -14 -44 3 -4 1 -8 -4 -8 -6 0 -13 -12 -17 -27 -10 -44 -38 -102
-45 -98 -4 3 -7 -5 -6 -17 1 -13 -6 -22 -16 -24 -14 -2 -16 5 -15 37 2 21 0
39 -4 39 -3 0 -5 10 -4 23 1 12 -3 28 -9 36 -7 10 -8 13 0 8 7 -4 11 5 11 23
0 16 -4 27 -8 25 -4 -3 -2 6 4 19 7 13 16 22 21 19 5 -4 6 0 0 8 -13 21 -14
42 -2 56 8 10 7 13 -3 13 -10 0 -10 3 -3 8 6 4 10 15 8 25 -1 9 2 17 8 17 6 0
7 7 4 16 -4 10 -2 13 6 8 7 -5 9 -2 5 8 -3 9 -3 19 1 22 3 4 7 13 8 21 7 44
82 176 139 243 11 13 20 29 20 35 0 7 6 13 13 13 6 1 17 2 23 3 5 0 8 5 5 10
-3 4 9 19 26 32 17 13 37 29 43 36 7 7 15 9 19 6 3 -4 6 -1 6 5 0 7 5 12 11
12 7 0 9 -8 4 -22z m4873 -55 c6 -6 12 -16 12 -22 0 -6 4 -11 8 -11 5 0 9 -7
9 -15 0 -8 -4 -15 -9 -15 -4 0 -8 -4 -8 -9 0 -5 -8 -26 -17 -47 -9 -22 -16
-42 -15 -46 1 -5 -3 -8 -9 -8 -6 0 -9 -9 -6 -20 3 -14 -1 -24 -14 -31 -11 -5
-17 -14 -13 -20 3 -5 0 -16 -6 -24 -7 -8 -9 -15 -5 -15 4 0 2 -7 -5 -15 -6 -8
-9 -18 -6 -24 3 -5 -1 -12 -10 -15 -9 -4 -14 -9 -11 -13 3 -3 0 -18 -8 -33 -8
-15 -11 -30 -8 -34 4 -3 0 -6 -7 -6 -7 0 -11 -3 -7 -6 3 -3 -3 -22 -14 -41
-11 -19 -17 -38 -14 -44 4 -5 1 -9 -4 -9 -6 0 -10 -3 -9 -7 1 -5 -3 -18 -10
-31 -7 -12 -10 -28 -6 -34 4 -7 3 -8 -4 -4 -8 4 -12 0 -12 -11 0 -10 -7 -29
-16 -41 -8 -12 -13 -26 -9 -31 3 -5 -2 -17 -11 -25 -8 -9 -12 -16 -8 -16 3 0
1 -6 -5 -13 -6 -8 -8 -17 -4 -20 3 -4 1 -7 -5 -7 -6 0 -9 -9 -7 -20 2 -11 1
-18 -4 -16 -4 3 -12 -4 -19 -15 -10 -15 -10 -19 0 -19 9 -1 8 -5 -3 -13 -9 -7
-15 -20 -13 -29 1 -9 -4 -19 -11 -22 -7 -2 -11 -16 -10 -30 2 -14 -1 -24 -6
-20 -8 5 -13 -12 -12 -43 1 -7 -3 -10 -8 -7 -8 5 -13 -9 -10 -28 0 -5 -4 -8
-10 -8 -5 0 -8 -4 -5 -9 4 -5 2 -11 -4 -13 -5 -1 -11 -14 -14 -28 -2 -14 -5
-27 -6 -30 -2 -3 -2 -8 -1 -12 0 -5 -4 -8 -10 -8 -5 0 -7 -4 -4 -10 3 -5 0
-10 -7 -10 -11 0 -10 -2 0 -9 11 -7 10 -9 -3 -15 -9 -3 -13 -10 -10 -16 3 -5
1 -10 -5 -10 -6 0 -8 -5 -4 -11 3 -6 2 -14 -4 -18 -7 -4 -14 -18 -16 -31 -2
-14 -5 -27 -6 -30 -2 -3 -2 -9 -1 -13 1 -5 -3 -6 -9 -2 -5 3 -11 1 -11 -4 -1
-6 -2 -14 -4 -18 -1 -5 -5 -21 -10 -38 -4 -16 -15 -40 -22 -52 -8 -12 -12 -27
-9 -32 4 -6 -3 -8 -15 -6 -13 3 -29 -1 -38 -8 -12 -9 -13 -9 -7 1 4 8 1 12 -9
12 -12 0 -15 5 -10 18 4 9 8 22 9 27 6 29 18 55 26 55 4 0 7 11 6 25 -2 13 1
22 5 19 5 -3 9 -2 10 3 3 29 9 47 21 54 7 5 9 9 4 9 -5 0 -3 7 4 15 9 11 9 15
1 15 -7 0 -3 9 8 21 10 11 22 36 26 55 3 19 10 34 15 34 6 0 9 3 8 8 -1 4 4
23 11 42 8 19 13 38 12 43 0 4 4 7 10 7 5 0 8 4 4 9 -3 5 0 13 6 16 5 4 8 13
5 21 -3 8 -1 14 5 14 6 0 8 7 5 16 -4 10 -2 13 6 8 8 -5 9 -2 5 9 -3 10 -2 17
3 17 5 0 13 12 16 28 4 15 13 39 21 54 7 15 13 29 13 30 -1 2 10 29 24 61 14
31 23 57 20 57 -3 0 2 7 10 16 19 18 21 38 4 29 -7 -4 -5 0 4 8 10 8 15 17 11
20 -3 4 -1 7 6 7 7 0 10 4 6 9 -3 5 2 17 11 25 11 12 12 16 2 16 -9 1 -8 5 4
14 9 7 19 25 22 41 3 16 11 32 18 37 7 4 10 8 5 8 -4 0 -1 14 8 30 9 17 12 30
9 30 -4 0 1 9 11 20 14 15 15 20 4 20 -10 1 -8 5 5 15 11 8 17 15 13 15 -4 0
2 16 13 36 11 19 16 33 10 29 -6 -3 -7 0 -4 9 3 9 11 16 16 16 6 0 8 7 4 15
-3 8 -2 15 2 15 9 0 33 53 35 79 0 11 5 17 9 15 4 -3 8 4 8 16 0 12 4 19 9 16
4 -3 7 6 5 19 -1 14 2 25 8 25 6 0 8 6 5 14 -7 17 23 16 41 -1z m124 -145 c30
-43 57 -89 64 -110 4 -10 10 -18 13 -18 4 0 8 -7 9 -15 1 -8 3 -22 4 -30 1 -8
5 -15 10 -15 5 0 6 -4 3 -10 -3 -5 -1 -10 4 -10 6 0 11 -5 11 -11 0 -5 -6 -7
-12 -4 -7 4 -5 0 4 -8 10 -8 15 -17 11 -20 -3 -4 0 -14 8 -24 8 -10 9 -14 2
-10 -8 5 -8 -1 2 -20 11 -21 12 -30 2 -42 -10 -12 -9 -13 1 -7 10 6 13 3 12
-10 -5 -43 0 -65 13 -58 8 5 8 2 -2 -9 -11 -14 -11 -17 0 -17 10 0 10 -3 3 -8
-7 -4 -10 -28 -9 -54 2 -26 -1 -46 -5 -43 -4 2 -6 -8 -4 -23 1 -14 -3 -33 -9
-41 -10 -12 -9 -13 2 -6 11 6 12 5 5 -6 -4 -8 -9 -20 -11 -28 -1 -8 -4 -25 -8
-38 -3 -13 -5 -26 -4 -29 0 -4 -5 -11 -13 -15 -11 -7 -10 -9 1 -9 11 0 10 -4
-5 -16 -10 -8 -12 -12 -4 -8 13 7 13 5 1 -9 -7 -9 -10 -17 -7 -17 4 0 0 -7 -8
-16 -9 -8 -14 -20 -11 -25 4 -5 2 -9 -3 -9 -9 0 -25 -40 -19 -48 1 -2 -6 -8
-15 -13 -10 -6 -18 -17 -18 -24 0 -8 -4 -15 -10 -15 -5 0 -10 -5 -10 -10 0 -6
-11 -22 -24 -35 -14 -13 -27 -33 -31 -44 -3 -12 -9 -20 -13 -20 -20 3 -32 -2
-27 -11 3 -5 1 -10 -5 -10 -6 0 -8 -4 -5 -10 3 -6 -4 -10 -16 -10 -12 0 -19
-3 -16 -7 4 -3 -7 -14 -23 -24 -17 -11 -30 -24 -30 -30 0 -6 -7 -9 -15 -5 -9
3 -15 0 -15 -10 0 -8 -4 -13 -8 -10 -5 3 -18 -3 -29 -14 -12 -10 -23 -16 -27
-13 -3 3 -9 -2 -12 -11 -5 -14 -9 -15 -15 -4 -7 10 -9 10 -9 1 0 -7 -7 -13
-15 -13 -8 0 -15 -5 -15 -12 0 -6 -3 -8 -7 -5 -3 4 -17 -2 -29 -14 -14 -13
-24 -17 -29 -10 -4 7 -13 8 -23 2 -9 -4 -27 -7 -39 -6 -11 1 -19 -3 -17 -9 3
-7 -13 -11 -41 -12 -24 -1 -42 3 -39 8 3 4 0 8 -5 8 -6 0 -2 16 9 36 12 20 15
32 8 28 -7 -4 -4 3 7 15 11 13 19 24 17 25 -5 2 8 37 24 67 7 14 11 29 7 33
-3 3 -1 6 5 6 7 0 11 3 11 8 -1 4 0 10 1 15 4 12 7 26 9 38 0 5 5 8 10 5 5 -4
8 2 7 11 -2 10 1 20 5 23 7 5 16 34 18 63 1 5 5 6 9 3 5 -3 9 0 10 7 3 32 16
73 24 78 5 3 10 12 12 20 1 8 7 24 14 35 6 12 8 24 5 28 -3 3 0 6 7 6 7 0 10
3 7 7 -4 3 3 22 15 41 12 20 16 32 9 28 -8 -5 -6 2 4 17 9 15 13 32 9 38 -4 7
-3 9 3 6 6 -4 14 0 17 9 4 10 2 13 -7 8 -6 -4 -4 2 6 13 9 11 17 27 17 36 0 9
5 17 11 17 5 0 8 4 4 9 -3 5 0 13 6 16 5 4 8 13 5 21 -3 8 -1 14 5 14 6 0 9 6
6 14 -3 8 1 17 9 20 9 3 13 10 9 15 -3 5 -1 12 5 16 5 3 10 17 10 31 0 13 5
24 11 24 6 0 9 7 5 15 -3 8 -2 15 3 15 8 0 22 35 18 44 -1 1 4 10 11 19 8 9
11 21 7 27 -3 5 0 13 8 16 7 2 14 10 14 17 2 19 27 81 36 88 5 3 8 9 8 13 -3
15 12 56 20 56 5 0 8 3 7 8 -4 16 14 52 27 52 7 0 24 -15 37 -32z m-4042
-1620 c0 -5 6 -8 12 -6 7 3 22 -4 32 -14 11 -10 26 -16 33 -14 7 3 15 1 19 -5
3 -6 12 -8 20 -5 8 3 14 2 14 -3 0 -5 34 -21 75 -37 41 -16 75 -32 75 -37 0
-4 5 -5 11 -2 5 4 18 0 28 -9 10 -9 32 -18 50 -19 17 -1 31 -6 31 -11 0 -4 7
-5 16 -2 8 3 12 2 9 -4 -3 -6 -1 -11 4 -11 6 -1 16 -3 21 -4 6 -1 17 -3 26 -4
8 0 12 -6 8 -12 -4 -6 1 -9 12 -7 11 1 30 -5 43 -14 13 -10 28 -15 33 -12 4 3
8 0 8 -6 0 -6 5 -8 11 -5 6 4 17 -1 24 -11 11 -15 14 -16 15 -4 0 10 3 11 8 3
4 -6 16 -13 27 -15 11 -1 25 -10 32 -18 10 -12 12 -13 13 -1 0 12 2 12 18 0
30 -24 61 -39 82 -39 11 0 20 -4 20 -10 0 -5 8 -10 18 -10 10 0 27 -7 38 -15
12 -8 24 -11 28 -8 3 3 6 2 6 -4 0 -5 6 -10 13 -11 43 -3 57 -8 61 -19 3 -7
12 -10 21 -7 8 3 15 1 15 -6 0 -6 5 -8 10 -5 6 3 10 1 10 -5 0 -6 5 -8 10 -5
6 3 10 2 10 -3 0 -8 6 -10 49 -14 11 -1 18 -5 16 -8 -4 -6 95 -45 108 -42 4 1
7 -3 7 -8 0 -5 3 -9 8 -8 13 4 56 -14 86 -35 16 -12 26 -15 22 -8 -6 8 0 7 16
-3 14 -9 28 -13 31 -9 4 3 7 1 7 -6 0 -7 4 -10 9 -6 5 3 12 1 16 -5 4 -6 11
-8 16 -5 5 4 9 1 9 -5 0 -6 5 -8 10 -5 6 3 10 2 10 -4 0 -5 8 -8 17 -7 10 2
24 -3 32 -11 7 -8 20 -12 28 -9 8 3 11 1 8 -4 -6 -9 10 -14 42 -13 7 1 11 -3
8 -7 -4 -7 22 -18 64 -26 7 -1 18 -7 24 -13 6 -6 22 -11 35 -11 13 0 20 -4 17
-10 -5 -9 32 -16 58 -11 5 1 6 -3 3 -8 -3 -5 15 -14 40 -20 24 -6 43 -15 40
-19 -2 -4 5 -9 16 -9 12 -1 24 -6 27 -10 3 -5 13 -8 21 -8 8 0 21 -6 28 -15 8
-8 11 -9 7 -3 -4 9 -1 11 9 7 9 -3 16 -9 16 -13 0 -4 7 -8 15 -9 8 -1 22 -3
30 -4 8 -1 15 -5 15 -9 0 -4 7 -10 16 -13 9 -3 12 -2 8 5 -3 6 3 5 15 -3 12
-7 21 -16 21 -21 0 -4 4 -6 9 -2 5 3 12 1 16 -4 3 -6 12 -8 20 -4 8 3 15 1 15
-5 0 -5 8 -12 18 -16 9 -3 23 -9 31 -12 9 -5 12 -2 7 7 -4 8 -1 6 7 -3 8 -10
17 -15 20 -11 4 3 7 0 7 -7 0 -7 3 -10 7 -7 3 4 12 2 20 -4 7 -6 13 -8 13 -5
0 4 10 1 23 -6 12 -7 25 -11 30 -10 4 1 7 -2 7 -8 0 -5 7 -7 15 -4 8 4 15 1
15 -6 0 -6 4 -8 10 -5 6 3 10 1 10 -5 0 -6 5 -8 10 -5 6 3 10 2 10 -3 0 -6 10
-8 22 -4 16 4 19 2 13 -8 -6 -10 -4 -12 8 -7 10 3 17 2 17 -4 0 -6 4 -8 9 -4
5 3 13 0 16 -6 4 -5 13 -8 20 -5 7 2 16 2 19 -2 11 -10 36 -11 36 -1 0 5 3 8
8 8 19 -4 74 15 79 27 3 8 9 11 15 8 5 -3 12 3 15 15 3 12 10 21 15 21 5 0 7
4 4 9 -4 5 -1 11 4 13 6 2 12 10 14 18 2 8 9 31 17 50 7 19 12 38 11 43 -1 4
2 7 8 7 5 0 10 6 10 14 0 22 40 110 53 118 9 5 8 8 -3 8 -12 0 -12 2 -2 9 8 5
15 20 15 34 1 14 5 23 8 21 4 -2 14 18 23 44 9 26 23 60 31 75 10 20 11 26 2
21 -6 -4 -4 2 6 13 9 11 14 23 10 26 -3 4 0 7 7 7 7 0 10 3 7 7 -4 3 -2 12 4
19 6 8 9 21 5 29 -3 9 -2 14 3 11 9 -6 45 72 42 92 -1 6 4 12 10 12 7 0 10 3
6 6 -3 4 0 19 9 35 8 16 15 32 15 36 3 17 13 38 21 44 4 3 9 17 10 32 1 15 6
27 10 27 16 0 23 2 39 11 12 6 22 2 34 -11 10 -12 13 -20 7 -20 -7 0 -12 -9
-12 -20 0 -11 -5 -20 -11 -20 -6 0 -9 -7 -5 -15 3 -8 1 -15 -5 -15 -6 0 -8 -4
-4 -9 3 -5 -1 -16 -9 -24 -11 -11 -12 -17 -3 -26 9 -9 8 -11 -6 -5 -13 5 -16
2 -11 -10 3 -9 1 -16 -5 -16 -6 0 -8 -7 -5 -15 3 -8 -1 -22 -10 -31 -9 -8 -14
-20 -11 -25 4 -5 1 -9 -5 -9 -6 0 -9 -4 -5 -9 3 -5 1 -12 -5 -16 -6 -4 -8 -11
-5 -16 4 -5 1 -9 -4 -9 -6 0 -10 -3 -9 -7 1 -7 -13 -46 -32 -83 -4 -8 -6 -23
-4 -33 1 -9 -1 -15 -6 -12 -4 3 -11 -5 -15 -18 -4 -12 -8 -25 -10 -29 -6 -19
-7 -23 -6 -30 0 -5 -3 -8 -7 -8 -5 0 -9 -7 -10 -15 -1 -8 -3 -22 -4 -30 -1 -8
-5 -12 -10 -9 -7 5 -12 -18 -9 -38 0 -5 -4 -8 -10 -8 -5 0 -7 -4 -4 -10 3 -5
1 -10 -4 -10 -6 0 -10 -3 -9 -7 0 -5 -2 -16 -5 -26 -4 -9 -10 -25 -14 -35 -3
-9 -5 -20 -5 -24 1 -5 -2 -8 -7 -8 -6 0 -8 -9 -6 -20 2 -11 0 -18 -6 -15 -5 4
-10 1 -10 -4 -2 -14 -6 -29 -9 -36 -1 -3 -4 -9 -5 -15 -1 -5 -4 -13 -5 -17 -1
-5 -2 -11 -1 -15 0 -5 -4 -8 -11 -8 -6 0 -9 -3 -5 -6 3 -3 -3 -15 -14 -27 -10
-11 -19 -27 -19 -34 0 -8 -4 -11 -10 -8 -6 3 -10 2 -10 -2 0 -5 -16 -17 -35
-27 -19 -10 -32 -23 -28 -29 4 -6 0 -8 -10 -4 -10 3 -17 2 -17 -3 0 -5 -11 -7
-25 -4 -14 2 -25 0 -25 -5 0 -6 -23 -9 -50 -8 -27 0 -50 5 -50 9 0 4 -11 8
-25 8 -14 0 -25 6 -25 13 0 8 -4 7 -10 -3 -6 -10 -10 -11 -10 -2 0 6 -7 12
-15 12 -8 0 -15 4 -15 8 0 5 -6 9 -14 9 -8 0 -29 7 -47 15 -19 9 -43 18 -54
20 -11 1 -25 9 -30 16 -6 7 -15 12 -20 11 -6 -1 -26 5 -45 14 -19 8 -38 13
-42 11 -5 -3 -8 0 -8 5 0 6 -9 11 -20 11 -11 0 -20 5 -20 11 0 5 -4 7 -10 4
-6 -3 -10 -1 -10 5 0 6 -4 8 -10 5 -5 -3 -10 -2 -10 3 0 5 -6 9 -12 10 -25 2
-48 8 -54 15 -4 4 -15 7 -25 7 -9 0 -19 4 -21 9 -1 5 -12 11 -23 13 -11 1 -22
6 -25 10 -3 3 -14 8 -25 10 -11 1 -22 6 -25 10 -3 3 -14 8 -25 10 -11 1 -23 7
-26 11 -3 4 -16 9 -27 10 -12 1 -22 4 -22 8 0 7 -54 23 -56 17 -1 -2 -10 4
-20 13 -18 16 -71 34 -86 31 -5 -1 -8 3 -8 9 0 5 -4 8 -9 5 -5 -4 -11 -1 -13
4 -2 6 -13 12 -26 13 -12 0 -22 5 -22 9 0 4 -11 8 -25 8 -14 0 -25 4 -25 9 0
8 -56 25 -72 22 -5 0 -8 4 -8 10 0 5 -4 8 -9 5 -5 -4 -11 -2 -13 4 -1 5 -12
11 -23 13 -11 2 -30 9 -43 15 -12 7 -28 10 -34 6 -7 -4 -8 -3 -4 4 5 8 0 12
-13 12 -12 0 -21 6 -22 13 0 9 -2 9 -5 0 -4 -8 -11 -6 -24 7 -11 11 -29 17
-44 16 -14 -2 -23 0 -21 5 3 4 1 10 -5 14 -5 3 -10 1 -10 -5 0 -7 -7 -5 -16 4
-8 9 -19 14 -24 11 -5 -3 -10 0 -12 5 -2 6 -10 12 -18 14 -47 9 -69 19 -63 29
4 6 0 8 -10 4 -9 -3 -19 -2 -23 4 -3 6 -12 8 -19 5 -7 -2 -16 2 -19 9 -3 8
-12 12 -21 9 -8 -3 -15 -1 -15 5 0 6 -3 10 -7 9 -8 -1 -27 5 -83 28 -19 8 -39
14 -44 14 -5 -1 -12 3 -16 10 -4 6 -17 12 -28 13 -12 1 -22 5 -22 9 0 4 -8 8
-18 8 -10 0 -22 4 -28 8 -11 10 -101 44 -109 42 -3 -1 -16 5 -28 13 -12 8 -39
19 -59 26 -21 7 -38 16 -38 20 0 6 -20 11 -62 14 -9 1 -14 5 -12 9 3 4 -4 8
-15 8 -12 0 -21 5 -21 11 0 5 -4 8 -9 4 -5 -3 -13 0 -16 6 -4 5 -13 8 -21 5
-8 -3 -14 -1 -14 4 0 6 -9 10 -19 10 -11 0 -21 5 -23 10 -2 6 -13 12 -26 15
-13 2 -37 11 -54 20 -17 8 -37 15 -45 15 -7 0 -13 4 -13 8 0 5 -6 9 -12 9 -22
1 -43 8 -49 16 -3 4 -15 9 -27 12 -11 2 -30 9 -41 15 -12 6 -21 7 -21 3 0 -4
-4 -2 -9 5 -4 7 -14 14 -22 15 -23 4 -40 18 -33 28 3 5 9 7 14 4 4 -3 10 1 13
8 5 15 97 19 97 5z"/>
<path d="M5290 1729 c0 -5 5 -7 10 -4 6 3 10 8 10 11 0 2 -4 4 -10 4 -5 0 -10
-5 -10 -11z"/>
</g>
</svg>
